o convex_0
v -0.037664 -0.032945 -0.002297
v -0.006885 -0.004809 -0.003761
v -0.006885 -0.004809 -0.005521
v -0.007180 -0.016826 -0.000830
v -0.042059 -0.029135 -0.000830
v -0.032095 -0.029724 -0.005227
v -0.038251 -0.027084 -0.005521
v -0.007180 -0.008326 -0.000830
v -0.006885 -0.013312 -0.004934
v -0.028578 -0.032067 -0.000830
v -0.028283 -0.030894 -0.003176
v -0.013044 -0.008622 -0.005814
v -0.010406 -0.006568 -0.003761
v -0.006885 -0.016238 -0.002296
v -0.022717 -0.015070 -0.004934
v -0.033852 -0.033829 -0.000830
v -0.007180 -0.010085 -0.005521
v -0.039716 -0.030016 -0.004348
v -0.033265 -0.032360 -0.003761
v -0.032386 -0.027670 -0.005521
v -0.039129 -0.027084 -0.004934
v -0.029748 -0.030601 -0.004348
v -0.006885 -0.014778 -0.004054
v -0.042354 -0.030309 -0.001124
v -0.010697 -0.008622 -0.002003
v -0.036199 -0.031187 -0.004641
v -0.032095 -0.033238 -0.002297
v -0.037955 -0.033238 -0.000830
v -0.041181 -0.029724 -0.003761
v -0.006885 -0.012431 -0.005227
v -0.013923 -0.010670 -0.005814
v -0.026817 -0.030894 -0.001124
v -0.015680 -0.010085 -0.004054
v -0.006885 -0.008326 -0.000830
v -0.017735 -0.017999 -0.005521
v -0.010992 -0.006860 -0.004934
v -0.035904 -0.032652 -0.003468
v -0.039129 -0.031775 -0.003176
v -0.035612 -0.028547 -0.005521
v -0.007475 -0.005687 -0.002882
v -0.030921 -0.030016 -0.004934
v -0.035317 -0.033829 -0.001417
v -0.038542 -0.028843 -0.005227
v -0.040007 -0.032067 -0.001710
v -0.027696 -0.030894 -0.002590
v -0.006885 -0.016533 -0.001710
v -0.006885 -0.015653 -0.003176
f 14 45 47 
f 5 4 8 
f 3 2 9 
f 4 5 10 
f 9 2 14 
f 10 5 16 
f 12 3 17 
f 12 7 21 
f 5 15 21 
f 15 12 21 
f 9 14 23 
f 22 9 23 
f 11 22 23 
f 5 8 25 
f 6 19 26 
f 10 16 27 
f 22 11 27 
f 19 22 27 
f 16 5 28 
f 5 24 28 
f 21 7 29 
f 5 21 29 
f 24 5 29 
f 3 9 30 
f 17 3 30 
f 7 12 31 
f 12 17 31 
f 4 10 32 
f 5 13 33 
f 15 5 33 
f 8 4 34 
f 14 2 34 
f 6 20 35 
f 30 6 35 
f 17 30 35 
f 31 17 35 
f 20 31 35 
f 2 3 36 
f 3 12 36 
f 13 2 36 
f 12 15 36 
f 33 13 36 
f 15 33 36 
f 26 19 37 
f 19 27 37 
f 18 26 38 
f 29 18 38 
f 37 1 38 
f 26 37 38 
f 20 6 39 
f 6 26 39 
f 7 31 39 
f 31 20 39 
f 2 13 40 
f 13 5 40 
f 25 8 40 
f 5 25 40 
f 34 2 40 
f 8 34 40 
f 19 6 41 
f 9 22 41 
f 22 19 41 
f 30 9 41 
f 6 30 41 
f 27 16 42 
f 28 1 42 
f 16 28 42 
f 1 37 42 
f 37 27 42 
f 26 18 43 
f 18 29 43 
f 29 7 43 
f 39 26 43 
f 7 39 43 
f 1 28 44 
f 28 24 44 
f 24 29 44 
f 38 1 44 
f 29 38 44 
f 10 27 45 
f 27 11 45 
f 32 10 45 
f 32 45 46 
f 4 32 46 
f 34 4 46 
f 14 34 46 
f 45 14 46 
f 23 14 47 
f 11 23 47 
f 45 11 47 
o convex_1
v 0.025363 0.003695 -0.001416
v 0.015983 0.020991 0.001220
v 0.015983 0.020991 -0.000536
v 0.041190 0.004575 0.005911
v 0.040898 0.004575 -0.006107
v 0.014808 0.010731 0.005619
v 0.014808 0.011024 -0.005520
v 0.025071 0.016005 -0.005227
v 0.023311 0.017180 0.005033
v 0.028585 0.003695 0.005618
v 0.014808 0.019232 -0.005520
v 0.014808 0.007213 0.000049
v 0.028293 0.003695 -0.005226
v 0.014808 0.019232 0.005325
v 0.040898 0.003695 0.006499
v 0.028293 0.014248 0.004152
v 0.041190 0.003695 -0.006107
v 0.019793 0.019525 -0.002002
v 0.018621 0.018057 -0.005813
v 0.014808 0.007506 -0.001414
v 0.039430 0.006042 0.000050
v 0.029465 0.013074 -0.004932
v 0.022138 0.018352 0.002393
v 0.017448 0.019816 -0.004347
v 0.014808 0.020404 0.004153
v 0.014808 0.015421 0.005619
v 0.014808 0.010145 -0.005227
v 0.014808 0.007506 0.001220
v 0.038845 0.003695 -0.006107
v 0.040605 0.004575 0.006499
v 0.040310 0.005454 0.005911
v 0.014808 0.020991 -0.002294
v 0.025363 0.003695 0.000634
v 0.018328 0.020111 0.002686
v 0.019501 0.018352 0.005325
v 0.023603 0.017180 -0.004347
v 0.039138 0.003695 0.006499
v 0.028878 0.003990 -0.005520
v 0.022431 0.017180 -0.005520
v 0.025951 0.015712 0.005032
v 0.040605 0.004868 -0.006107
v 0.014808 0.007213 -0.000828
v 0.017741 0.019525 0.004739
v 0.041485 0.003990 0.006205
v 0.018036 0.017766 -0.005813
v 0.018036 0.020404 -0.000536
v 0.018036 0.020111 -0.002881
f 93 65 94 
f 54 53 58 
f 53 54 59 
f 57 48 60 
f 58 53 61 
f 57 60 62 
f 62 60 64 
f 59 54 67 
f 63 68 69 
f 66 58 71 
f 58 61 72 
f 61 53 73 
f 67 54 74 
f 60 67 74 
f 57 53 75 
f 53 59 75 
f 59 57 75 
f 52 64 76 
f 64 60 76 
f 61 73 77 
f 68 63 78 
f 49 50 79 
f 71 58 79 
f 72 49 79 
f 58 72 79 
f 48 57 80 
f 59 48 80 
f 57 59 80 
f 56 70 81 
f 49 72 81 
f 77 56 82 
f 61 77 82 
f 63 69 83 
f 69 55 83 
f 70 63 83 
f 65 70 83 
f 53 57 84 
f 57 62 84 
f 73 53 84 
f 62 77 84 
f 77 73 84 
f 74 54 85 
f 60 74 85 
f 54 76 85 
f 76 60 85 
f 66 71 86 
f 83 55 86 
f 71 83 86 
f 70 56 87 
f 63 70 87 
f 56 77 87 
f 78 63 87 
f 77 78 87 
f 51 52 88 
f 69 68 88 
f 55 69 88 
f 52 76 88 
f 78 51 88 
f 68 78 88 
f 86 55 88 
f 66 86 88 
f 48 59 89 
f 60 48 89 
f 59 67 89 
f 67 60 89 
f 72 61 90 
f 56 81 90 
f 81 72 90 
f 61 82 90 
f 82 56 90 
f 52 51 91 
f 64 52 91 
f 62 64 91 
f 77 62 91 
f 51 78 91 
f 78 77 91 
f 54 58 92 
f 58 66 92 
f 76 54 92 
f 88 76 92 
f 66 88 92 
f 50 49 93 
f 70 65 93 
f 49 81 93 
f 81 70 93 
f 79 50 94 
f 71 79 94 
f 65 83 94 
f 83 71 94 
f 50 93 94 
o convex_2
v 0.009238 -0.020930 0.000343
v 0.012463 -0.007738 0.002394
v 0.012463 -0.009498 0.005618
v -0.006885 -0.007738 0.005618
v -0.006885 -0.007738 -0.005520
v 0.012463 -0.009792 -0.004934
v -0.006885 -0.015945 0.003274
v 0.012463 -0.018582 0.006206
v 0.012463 -0.019756 -0.004348
v -0.006885 -0.015359 -0.003468
v 0.008651 -0.007738 -0.005227
v -0.006885 -0.013016 0.005618
v 0.000153 -0.007738 0.006206
v 0.010997 -0.018582 -0.004934
v 0.011289 -0.020048 0.005033
v -0.006885 -0.016532 -0.001416
v -0.006885 -0.012431 -0.005227
v 0.000444 -0.008032 -0.005814
v 0.009823 -0.020342 -0.003175
v 0.012463 -0.020930 0.002394
v -0.006885 -0.016532 0.002101
v 0.009531 -0.007738 0.005618
v -0.006885 -0.011550 0.005911
v 0.009823 -0.020634 0.003272
v 0.012169 -0.009498 0.005911
v 0.008944 -0.018582 0.005911
v 0.012463 -0.007738 -0.001415
v 0.010116 -0.019170 -0.004641
v 0.012463 -0.018582 -0.004934
v 0.011876 -0.020930 -0.002002
v -0.006885 -0.014187 0.005033
v 0.009531 -0.019756 0.005033
v -0.006885 -0.013896 -0.004641
v 0.010116 -0.009205 -0.005227
v 0.008065 -0.020634 -0.000536
v 0.009238 -0.017704 0.006206
v 0.012463 -0.015651 0.006206
v -0.002194 -0.008032 -0.005814
v -0.001607 -0.008032 0.006206
v 0.008065 -0.020634 0.001221
v -0.006885 -0.016237 -0.002295
v 0.008651 -0.019463 -0.004054
f 135 104 136 
f 98 96 99 
f 96 97 100 
f 98 99 101 
f 100 97 102 
f 100 102 103 
f 101 99 104 
f 99 96 105 
f 98 101 106 
f 96 98 107 
f 101 104 110 
f 104 99 111 
f 99 105 112 
f 103 102 114 
f 102 109 114 
f 101 110 115 
f 97 96 116 
f 96 107 116 
f 98 106 117 
f 95 114 118 
f 114 109 118 
f 97 116 119 
f 116 107 119 
f 109 102 120 
f 96 100 121 
f 105 96 121 
f 100 105 121 
f 111 108 122 
f 100 103 123 
f 108 112 123 
f 103 122 123 
f 122 108 123 
f 113 103 124 
f 103 114 124 
f 114 95 124 
f 106 101 125 
f 120 106 125 
f 120 125 126 
f 101 115 126 
f 118 109 126 
f 115 118 126 
f 109 120 126 
f 125 101 126 
f 104 111 127 
f 111 122 127 
f 105 100 128 
f 112 105 128 
f 100 123 128 
f 123 112 128 
f 110 113 129 
f 115 110 129 
f 124 95 129 
f 113 124 129 
f 102 107 130 
f 117 106 130 
f 106 120 130 
f 120 102 130 
f 102 97 131 
f 107 102 131 
f 97 119 131 
f 119 107 131 
f 111 99 132 
f 108 111 132 
f 112 108 132 
f 99 112 132 
f 107 98 133 
f 98 117 133 
f 130 107 133 
f 117 130 133 
f 95 118 134 
f 118 115 134 
f 129 95 134 
f 115 129 134 
f 110 104 135 
f 113 110 135 
f 113 135 136 
f 103 113 136 
f 122 103 136 
f 104 127 136 
f 127 122 136 
o convex_3
v -0.029753 0.026854 -0.005521
v -0.031804 0.033597 -0.000830
v -0.030925 0.033303 -0.000830
v -0.041474 0.028614 -0.000830
v -0.022131 0.026854 -0.000830
v -0.037664 0.030958 -0.004640
v -0.039130 0.026854 -0.004934
v -0.030339 0.031543 -0.004055
v -0.040302 0.032130 -0.001417
v -0.023598 0.027148 -0.003468
v -0.036197 0.033303 -0.002590
v -0.041474 0.029493 -0.003468
v -0.028581 0.026854 -0.000830
v -0.032097 0.029493 -0.005521
v -0.027409 0.031250 -0.001417
v -0.037076 0.033597 -0.000830
v -0.037957 0.027441 -0.005521
v -0.039130 0.026854 -0.003468
v -0.042355 0.030079 -0.000830
v -0.032681 0.032717 -0.003468
v -0.025063 0.027148 -0.004348
v -0.035318 0.031543 -0.004640
v -0.037957 0.032717 -0.002883
v -0.040302 0.028907 -0.004640
v -0.036197 0.030371 -0.005227
v -0.041474 0.028614 -0.003468
v -0.022426 0.027148 -0.002296
v -0.028288 0.031543 -0.002296
v -0.039716 0.030958 -0.003762
v -0.032388 0.033597 -0.001710
f 164 144 166 
f 139 138 140 
f 139 140 141 
f 137 141 143 
f 141 137 146 
f 141 140 149 
f 143 141 149 
f 139 141 151 
f 140 138 152 
f 137 143 153 
f 150 137 153 
f 140 143 154 
f 149 140 154 
f 143 149 154 
f 145 148 155 
f 140 152 155 
f 152 145 155 
f 146 137 157 
f 144 146 157 
f 137 150 157 
f 150 144 157 
f 144 150 158 
f 156 144 158 
f 147 156 158 
f 145 152 159 
f 152 147 159 
f 158 142 159 
f 147 158 159 
f 153 143 160 
f 153 160 161 
f 150 153 161 
f 142 158 161 
f 158 150 161 
f 160 142 161 
f 143 140 162 
f 140 155 162 
f 155 148 162 
f 160 143 162 
f 148 160 162 
f 141 146 163 
f 151 141 163 
f 151 163 164 
f 146 144 164 
f 139 151 164 
f 163 146 164 
f 148 145 165 
f 159 142 165 
f 145 159 165 
f 160 148 165 
f 142 160 165 
f 138 139 166 
f 152 138 166 
f 147 152 166 
f 144 156 166 
f 156 147 166 
f 139 164 166 
o convex_4
v -0.011578 0.007506 0.005618
v -0.023013 0.028027 0.001515
v -0.022132 0.027438 0.000929
v -0.040008 0.027731 0.003860
v -0.007474 0.008975 -0.000830
v -0.007181 0.013664 0.005326
v -0.032973 0.028027 0.005912
v -0.028576 0.028027 -0.000830
v -0.007181 0.016885 -0.000830
v -0.007181 0.005747 0.005912
v -0.037958 0.026852 0.005912
v -0.024472 0.027145 0.004447
v -0.027403 0.024799 -0.000830
v -0.010697 0.006920 0.004153
v -0.007181 0.016007 0.003567
v -0.023013 0.028027 -0.000830
v -0.030334 0.021869 0.002395
v -0.007181 0.010439 0.005912
v -0.029454 0.028027 0.005618
v -0.007181 0.005161 0.004153
v -0.007181 0.016885 0.001515
v -0.016855 0.011025 0.004153
v -0.036785 0.025386 0.005326
v -0.039716 0.028027 0.005326
v -0.023887 0.028027 0.002981
v -0.013921 0.009266 0.005912
v -0.039716 0.027731 0.003567
v -0.029454 0.022456 0.001515
v -0.007181 0.008975 -0.000830
v -0.023887 0.016010 0.005326
v -0.007181 0.012784 0.005618
v -0.030627 0.027145 0.005912
v -0.028576 0.026267 -0.000830
v -0.007181 0.015128 0.004447
v -0.012455 0.008975 0.002981
v -0.007474 0.005161 0.005618
v -0.039716 0.028027 0.003567
v -0.028284 0.028027 0.005326
f 191 185 204 
f 173 168 174 
f 171 174 175 
f 175 172 176 
f 176 173 177 
f 174 171 179 
f 172 175 181 
f 168 169 182 
f 174 168 182 
f 175 174 182 
f 169 175 182 
f 176 172 184 
f 173 176 184 
f 168 173 185 
f 175 176 186 
f 180 171 186 
f 169 168 187 
f 175 169 187 
f 181 175 187 
f 180 167 188 
f 170 183 188 
f 173 174 190 
f 177 173 190 
f 189 177 190 
f 170 189 190 
f 178 181 191 
f 168 185 191 
f 187 168 191 
f 181 187 191 
f 176 177 192 
f 177 189 192 
f 183 170 193 
f 179 171 194 
f 171 183 194 
f 193 179 194 
f 183 193 194 
f 171 175 195 
f 186 171 195 
f 175 186 195 
f 188 167 196 
f 170 188 196 
f 189 170 196 
f 167 192 196 
f 192 189 196 
f 184 172 197 
f 172 185 197 
f 197 185 198 
f 173 184 198 
f 185 173 198 
f 184 197 198 
f 174 179 199 
f 193 174 199 
f 179 193 199 
f 178 172 200 
f 172 181 200 
f 181 178 200 
f 171 180 201 
f 183 171 201 
f 180 188 201 
f 188 183 201 
f 167 180 202 
f 186 176 202 
f 180 186 202 
f 192 167 202 
f 176 192 202 
f 170 190 203 
f 190 174 203 
f 174 193 203 
f 193 170 203 
f 172 178 204 
f 185 172 204 
f 178 191 204 
o convex_5
v -0.031219 0.032423 0.003567
v -0.042357 0.029492 -0.000830
v -0.042357 0.029492 0.000929
v -0.023302 0.028027 0.000929
v -0.039423 0.028027 0.005619
v -0.036198 0.033890 -0.000830
v -0.023596 0.028027 -0.000830
v -0.028582 0.028027 0.005326
v -0.037371 0.031837 0.004446
v -0.030046 0.033010 -0.000830
v -0.040594 0.031837 0.002102
v -0.040010 0.028027 0.002980
v -0.033266 0.030080 0.005619
v -0.035905 0.033890 0.001515
v -0.026234 0.029492 0.003567
v -0.041767 0.028906 -0.000830
v -0.029752 0.032717 0.001809
v -0.039717 0.032717 -0.000830
v -0.040889 0.030080 0.004153
v -0.031510 0.033596 0.001222
v -0.034148 0.033010 0.003567
v -0.031219 0.030373 0.005326
v -0.028287 0.028027 -0.000830
v -0.023596 0.028321 0.002102
v -0.025941 0.030373 -0.000244
v -0.042062 0.030665 0.001222
v -0.038837 0.033010 0.001809
v -0.037371 0.029786 0.005619
v -0.041183 0.028613 0.003859
v -0.033558 0.031837 0.004739
v -0.029752 0.028027 0.005619
v -0.037957 0.032423 0.003567
v -0.024475 0.028027 0.003274
f 228 219 237 
f 208 209 211 
f 206 210 211 
f 209 208 212 
f 211 210 214 
f 211 209 216 
f 207 206 220 
f 206 211 220 
f 205 219 221 
f 210 206 222 
f 214 210 224 
f 210 218 224 
f 221 214 224 
f 205 221 224 
f 205 224 225 
f 224 218 225 
f 219 205 226 
f 212 219 226 
f 211 216 227 
f 220 211 227 
f 216 220 227 
f 221 219 228 
f 221 228 229 
f 208 211 229 
f 211 214 229 
f 214 221 229 
f 228 208 229 
f 206 207 230 
f 222 206 230 
f 215 222 230 
f 207 223 230 
f 223 215 230 
f 218 210 231 
f 210 222 231 
f 222 215 231 
f 209 217 232 
f 223 209 232 
f 213 223 232 
f 216 209 233 
f 207 220 233 
f 220 216 233 
f 223 207 233 
f 209 223 233 
f 205 225 234 
f 225 213 234 
f 217 226 234 
f 226 205 234 
f 232 217 234 
f 213 232 234 
f 209 212 235 
f 217 209 235 
f 212 226 235 
f 226 217 235 
f 223 213 236 
f 215 223 236 
f 213 225 236 
f 225 218 236 
f 231 215 236 
f 218 231 236 
f 212 208 237 
f 219 212 237 
f 208 228 237 
o convex_6
v 0.001030 0.004575 0.009137
v -0.001314 0.003695 -0.008745
v -0.001314 0.003989 -0.008745
v 0.014808 0.007799 -0.002001
v -0.007178 0.008092 0.005617
v -0.007178 0.008092 -0.005227
v -0.006298 0.003695 0.008255
v 0.010117 0.003695 0.001806
v 0.008944 0.008092 0.005619
v -0.007178 0.004575 -0.005227
v 0.009236 0.008092 -0.005227
v 0.005717 0.003695 -0.006692
v 0.004839 0.003695 0.008549
v 0.014808 0.008092 0.001806
v -0.001314 0.006333 0.008843
v -0.004830 0.003695 -0.008159
v -0.001606 0.005454 -0.008451
v 0.003081 0.003989 -0.008451
v 0.010117 0.003695 -0.000536
v 0.014808 0.007212 0.001220
v -0.001314 0.007505 -0.006692
v -0.007178 0.004868 0.005911
v -0.005710 0.004282 0.008843
v 0.002788 0.005454 0.008843
v -0.001021 0.007799 0.006790
v -0.006298 0.003695 -0.005227
v -0.004245 0.003695 0.009137
v 0.001325 0.005161 -0.008451
v 0.000737 0.006626 0.008549
v 0.000737 0.007212 -0.006986
v -0.003365 0.004868 -0.008451
v 0.011582 0.008092 0.004152
v 0.009236 0.003695 0.003273
v 0.014808 0.008092 -0.002001
v -0.002779 0.006040 0.008843
v 0.000445 0.008092 -0.005813
v 0.004254 0.004282 0.008843
v 0.014808 0.007212 -0.000828
f 257 256 275 
f 244 239 245 
f 243 242 246 
f 242 243 247 
f 243 246 248 
f 245 239 249 
f 244 245 250 
f 248 246 251 
f 239 244 253 
f 247 243 253 
f 239 240 255 
f 248 241 255 
f 249 239 255 
f 241 249 255 
f 245 249 256 
f 249 241 256 
f 251 250 257 
f 241 251 257 
f 245 256 257 
f 254 243 258 
f 244 242 259 
f 242 247 259 
f 247 244 259 
f 242 244 260 
f 252 238 261 
f 246 242 262 
f 242 252 262 
f 244 247 263 
f 253 244 263 
f 247 253 263 
f 244 250 264 
f 238 252 264 
f 260 244 264 
f 240 254 265 
f 255 240 265 
f 248 255 265 
f 261 246 266 
f 252 261 266 
f 246 262 266 
f 262 252 266 
f 254 258 267 
f 265 254 267 
f 248 265 267 
f 240 239 268 
f 239 253 268 
f 253 243 268 
f 254 240 268 
f 243 254 268 
f 251 246 269 
f 250 251 269 
f 250 245 270 
f 245 257 270 
f 257 250 270 
f 241 248 271 
f 251 241 271 
f 248 251 271 
f 252 242 272 
f 242 260 272 
f 264 252 272 
f 260 264 272 
f 243 248 273 
f 258 243 273 
f 248 267 273 
f 267 258 273 
f 261 238 274 
f 246 261 274 
f 238 264 274 
f 264 250 274 
f 269 246 274 
f 250 269 274 
f 256 241 275 
f 241 257 275 
o convex_7
v -0.007178 0.008092 0.005619
v 0.014221 0.021284 0.000928
v 0.014221 0.021284 -0.000536
v 0.014808 0.008092 0.002100
v -0.007178 0.009266 -0.005521
v -0.007178 0.016886 0.001221
v 0.014808 0.019230 -0.005521
v 0.014808 0.019230 0.005325
v 0.009824 0.008092 -0.005226
v -0.007178 0.016007 -0.003175
v 0.014808 0.010733 0.005619
v -0.007178 0.012784 0.005619
v 0.014808 0.011025 -0.005521
v 0.009531 0.020990 -0.002294
v 0.009531 0.020695 0.003273
v -0.007178 0.008092 -0.005227
v 0.002496 0.008092 0.005912
v 0.008651 0.018937 -0.005226
v -0.007178 0.012784 -0.005227
v -0.007178 0.014541 0.004740
v 0.014808 0.008092 -0.002294
v 0.009236 0.019230 0.005032
v 0.009236 0.008092 0.005619
v -0.007178 0.016298 0.002980
v 0.011289 0.016886 0.005619
v 0.008651 0.020990 0.000635
v -0.007178 0.010439 0.005912
v -0.007178 0.016886 -0.000829
v 0.011289 0.020695 -0.003760
v 0.014808 0.020695 0.003567
v -0.007178 0.014833 -0.004348
v 0.008651 0.018350 -0.005521
v 0.001615 0.008092 -0.005521
v 0.014808 0.020695 -0.003468
v 0.011289 0.019230 0.005325
v 0.009824 0.020110 -0.004347
v 0.010997 0.021284 0.001514
v 0.014808 0.010147 -0.005226
v 0.014808 0.015420 0.005619
v 0.010704 0.020403 0.004152
v 0.011582 0.021284 -0.001709
v 0.008651 0.020990 -0.001122
v -0.007178 0.016592 -0.002001
v 0.009531 0.020695 -0.003175
v -0.007178 0.008387 0.005912
v -0.007178 0.013664 0.005326
v 0.006305 0.016298 0.005619
v -0.005710 0.011318 -0.005521
f 307 280 323 
f 280 276 281 
f 279 282 283 
f 279 276 284 
f 280 281 285 
f 279 283 286 
f 281 276 287 
f 282 279 288 
f 280 282 288 
f 276 280 291 
f 284 276 291 
f 276 279 292 
f 280 285 294 
f 281 287 295 
f 279 284 296 
f 288 279 296 
f 279 286 298 
f 292 279 298 
f 286 292 298 
f 290 281 299 
f 281 295 299 
f 295 297 299 
f 281 290 301 
f 287 276 302 
f 292 300 302 
f 285 281 303 
f 281 301 303 
f 278 277 305 
f 283 282 305 
f 285 293 306 
f 294 285 306 
f 294 306 307 
f 282 280 307 
f 293 282 307 
f 306 293 307 
f 280 288 308 
f 288 284 308 
f 291 280 308 
f 284 291 308 
f 282 304 309 
f 278 305 309 
f 305 282 309 
f 300 283 310 
f 282 293 311 
f 293 285 311 
f 304 282 311 
f 277 278 312 
f 301 290 312 
f 305 277 312 
f 290 305 312 
f 284 288 313 
f 296 284 313 
f 288 296 313 
f 286 283 314 
f 292 286 314 
f 283 300 314 
f 300 292 314 
f 290 299 315 
f 299 297 315 
f 283 305 315 
f 305 290 315 
f 297 310 315 
f 310 283 315 
f 304 289 316 
f 278 309 316 
f 309 304 316 
f 312 278 316 
f 312 316 317 
f 289 303 317 
f 303 301 317 
f 301 312 317 
f 316 289 317 
f 285 303 318 
f 303 289 318 
f 289 304 319 
f 311 285 319 
f 304 311 319 
f 285 318 319 
f 318 289 319 
f 276 292 320 
f 302 276 320 
f 292 302 320 
f 295 287 321 
f 297 295 321 
f 287 310 321 
f 310 297 321 
f 287 302 322 
f 302 300 322 
f 310 287 322 
f 300 310 322 
f 280 294 323 
f 294 307 323 
o convex_8
v -0.037371 -0.032361 0.003567
v -0.015973 -0.020930 0.003861
v -0.015973 -0.020930 0.003567
v -0.031507 -0.021225 0.005326
v -0.032972 -0.030016 0.005912
v -0.040301 -0.027671 0.003567
v -0.021547 -0.020930 0.005912
v -0.038542 -0.026792 0.005912
v -0.028869 -0.031188 0.003861
v -0.030042 -0.020930 0.003567
v -0.020374 -0.022690 0.005326
v -0.039128 -0.030603 0.004740
v -0.030628 -0.020930 0.005912
v -0.032680 -0.032655 0.003567
v -0.029747 -0.030016 0.005326
v -0.041475 -0.029430 0.003861
v -0.016562 -0.021225 0.004447
v -0.036490 -0.030895 0.005326
v -0.032386 -0.031775 0.004740
v -0.038542 -0.027964 0.005912
v -0.030920 -0.020930 0.003861
v -0.038836 -0.026501 0.005326
v -0.030628 -0.028843 0.005912
v -0.018027 -0.022983 0.003567
v -0.036784 -0.032068 0.004447
v -0.040888 -0.028551 0.004740
f 331 345 349 
f 326 324 329 
f 325 326 330 
f 328 330 331 
f 326 329 333 
f 330 326 333 
f 331 330 336 
f 330 333 336 
f 324 326 337 
f 329 324 339 
f 324 335 339 
f 325 330 340 
f 330 334 340 
f 338 332 340 
f 334 338 340 
f 337 332 342 
f 332 338 342 
f 338 328 342 
f 328 341 342 
f 328 331 343 
f 341 328 343 
f 335 341 343 
f 329 327 344 
f 333 329 344 
f 327 336 344 
f 336 333 344 
f 327 329 345 
f 331 336 345 
f 336 327 345 
f 330 328 346 
f 334 330 346 
f 328 338 346 
f 338 334 346 
f 326 325 347 
f 337 326 347 
f 332 337 347 
f 325 340 347 
f 340 332 347 
f 335 324 348 
f 324 337 348 
f 341 335 348 
f 337 342 348 
f 342 341 348 
f 329 339 349 
f 339 335 349 
f 343 331 349 
f 335 343 349 
f 345 329 349 
o convex_9
v -0.013922 -0.020930 -0.000830
v -0.006885 -0.007152 0.002687
v -0.006885 -0.007152 0.002101
v -0.022715 -0.020636 0.003274
v -0.006885 -0.015945 0.003274
v -0.022419 -0.020636 -0.000830
v -0.006885 -0.008618 -0.000830
v -0.006885 -0.016824 -0.000830
v -0.014800 -0.020930 0.003274
v -0.010697 -0.010084 0.003274
v -0.007180 -0.007446 0.000636
v -0.013629 -0.020930 0.001222
v -0.022419 -0.020930 -0.000830
v -0.006885 -0.007738 0.003274
v -0.006885 -0.016530 0.002101
v -0.007472 -0.008618 -0.000830
v -0.022715 -0.020930 0.003274
v -0.021542 -0.019464 0.002980
v -0.007180 -0.007152 0.002101
f 355 367 368 
f 352 351 354 
f 352 354 356 
f 350 355 356 
f 350 356 357 
f 356 354 357 
f 354 353 358 
f 353 354 359 
f 352 356 360 
f 350 357 361 
f 358 350 361 
f 355 350 362 
f 353 355 362 
f 350 358 362 
f 354 351 363 
f 351 359 363 
f 359 354 363 
f 357 354 364 
f 354 358 364 
f 361 357 364 
f 358 361 364 
f 356 355 365 
f 355 360 365 
f 360 356 365 
f 358 353 366 
f 353 362 366 
f 362 358 366 
f 355 353 367 
f 353 359 367 
f 367 359 368 
f 351 352 368 
f 359 351 368 
f 360 355 368 
f 352 360 368 
o convex_10
v -0.030335 -0.020930 0.003861
v -0.006885 -0.004513 0.005619
v -0.006885 -0.004513 0.004154
v -0.006885 -0.015651 0.003274
v -0.021247 -0.020930 0.005912
v -0.030335 -0.020636 0.005912
v -0.006885 -0.011256 0.005912
v -0.015097 -0.020930 0.003274
v -0.007766 -0.008034 0.003274
v -0.006885 -0.014187 0.005033
v -0.015390 -0.009792 0.003861
v -0.029750 -0.020636 0.003567
v -0.012164 -0.007738 0.005912
v -0.023007 -0.020930 0.003274
v -0.016268 -0.020930 0.004447
v -0.027988 -0.018584 0.004740
v -0.011871 -0.007152 0.005326
v -0.007180 -0.005686 0.003567
v -0.019488 -0.020930 0.005619
v -0.006885 -0.013014 0.005619
v -0.006885 -0.004807 0.005912
v -0.029750 -0.020049 0.003861
v -0.007180 -0.015651 0.003861
v -0.010404 -0.006273 0.004154
v -0.025059 -0.017118 0.003567
v -0.017735 -0.011256 0.004154
v -0.030335 -0.020930 0.005912
f 374 369 395 
f 371 370 372 
f 372 370 375 
f 374 373 375 
f 373 369 376 
f 372 376 377 
f 372 375 378 
f 374 375 381 
f 376 369 382 
f 377 376 382 
f 380 377 382 
f 369 380 382 
f 373 376 383 
f 381 370 385 
f 374 381 385 
f 384 374 385 
f 371 372 386 
f 372 377 386 
f 373 383 387 
f 383 378 387 
f 375 373 388 
f 378 375 388 
f 373 387 388 
f 387 378 388 
f 375 370 389 
f 370 381 389 
f 381 375 389 
f 369 374 390 
f 380 369 390 
f 374 384 390 
f 376 372 391 
f 372 378 391 
f 383 376 391 
f 378 383 391 
f 370 371 392 
f 385 370 392 
f 371 386 392 
f 386 379 392 
f 377 380 393 
f 386 377 393 
f 379 386 393 
f 390 379 393 
f 380 390 393 
f 384 385 394 
f 379 390 394 
f 390 384 394 
f 385 392 394 
f 392 379 394 
f 369 373 395 
f 373 374 395 
o convex_11
v 0.012463 -0.007444 0.001807
v -0.003951 -0.004220 -0.008745
v -0.003951 -0.003927 -0.008745
v -0.004245 -0.004220 0.008844
v -0.006885 -0.007738 -0.005520
v 0.009236 -0.003927 0.001513
v -0.006885 -0.007738 0.005617
v 0.008651 -0.007738 -0.005226
v 0.009236 -0.007738 0.005617
v -0.006590 -0.003927 0.006790
v 0.004546 -0.003927 -0.008158
v 0.003081 -0.003927 0.008844
v 0.000444 -0.006565 -0.008158
v -0.006885 -0.004514 -0.005813
v -0.000141 -0.007151 0.007375
v 0.012463 -0.007444 -0.000829
v 0.006010 -0.003927 0.006495
v 0.009236 -0.003927 -0.000536
v -0.006298 -0.003927 -0.007571
v 0.000444 -0.005393 0.008844
v 0.002789 -0.005393 -0.008451
v -0.002486 -0.005978 -0.008451
v 0.005719 -0.003927 -0.006986
v -0.001900 -0.005393 0.008844
v 0.012463 -0.007738 -0.000829
v 0.001325 -0.007738 -0.006106
v -0.006885 -0.004220 0.006203
v -0.005417 -0.004220 -0.008451
v -0.001900 -0.007738 0.006495
f 410 419 424 
f 402 400 403 
f 402 403 404 
f 401 398 405 
f 402 399 405 
f 398 401 406 
f 401 405 407 
f 405 399 407 
f 400 402 409 
f 401 396 411 
f 396 401 412 
f 404 396 412 
f 401 407 412 
f 407 404 412 
f 406 401 413 
f 401 411 413 
f 405 398 414 
f 400 409 414 
f 404 407 415 
f 407 399 415 
f 410 404 415 
f 397 398 416 
f 398 406 416 
f 406 403 416 
f 403 408 416 
f 416 408 417 
f 408 400 417 
f 397 416 417 
f 403 406 418 
f 411 403 418 
f 406 413 418 
f 413 411 418 
f 399 402 419 
f 415 399 419 
f 410 415 419 
f 396 404 420 
f 404 403 420 
f 411 396 420 
f 403 411 420 
f 403 400 421 
f 400 408 421 
f 408 403 421 
f 402 405 422 
f 409 402 422 
f 405 414 422 
f 414 409 422 
f 398 397 423 
f 414 398 423 
f 400 414 423 
f 397 417 423 
f 417 400 423 
f 402 404 424 
f 404 410 424 
f 419 402 424 
o convex_12
v -0.006005 0.000470 -0.008450
v 0.010118 0.003695 0.000341
v 0.010118 0.003402 0.000341
v -0.005710 0.002815 0.009136
v 0.005427 -0.003927 0.007377
v 0.005427 -0.003927 -0.007570
v -0.006298 -0.003927 0.006495
v 0.000150 0.003695 -0.009038
v -0.005710 -0.003927 -0.008450
v 0.004548 0.003695 0.008843
v -0.006298 0.003695 -0.004933
v 0.009236 -0.003927 0.001513
v -0.004539 -0.003927 0.008843
v 0.005720 0.003695 -0.006693
v -0.006298 0.003695 0.007083
v 0.005134 0.001056 0.008843
v 0.005134 -0.003047 -0.008452
v -0.001901 -0.003047 -0.009332
v -0.000143 -0.001581 0.009430
v -0.006298 -0.003927 -0.007572
v 0.009823 0.003695 0.002099
v -0.006592 0.000176 0.005324
v 0.009236 -0.003927 -0.000241
v 0.003374 -0.003927 0.008843
v -0.004539 0.003695 -0.008450
v 0.002787 0.001936 -0.009038
v -0.003952 0.001643 -0.009332
v -0.006298 -0.000702 0.008549
v 0.009531 0.003402 -0.001122
v -0.004245 0.003695 0.009136
v 0.001323 0.001056 0.009430
v 0.000150 -0.003927 -0.009038
v -0.000143 0.003402 -0.009332
v 0.004254 0.003109 -0.008156
v 0.005427 -0.002461 -0.008156
v 0.002787 -0.001875 -0.009038
v -0.006005 -0.002461 -0.008744
v -0.005710 -0.002754 0.008843
v 0.005427 0.001349 0.008549
v -0.006298 -0.000702 -0.007864
v -0.005710 0.002522 -0.008156
v 0.005427 0.003402 0.008255
f 463 445 466 
f 430 429 431 
f 430 431 433 
f 426 432 434 
f 434 432 435 
f 429 430 436 
f 431 429 437 
f 432 426 438 
f 434 435 439 
f 433 431 444 
f 427 426 445 
f 426 434 445 
f 436 427 445 
f 439 435 446 
f 444 431 446 
f 427 436 447 
f 436 430 447 
f 437 429 448 
f 429 440 448 
f 443 437 448 
f 435 432 449 
f 428 439 452 
f 446 431 452 
f 439 446 452 
f 426 427 453 
f 438 426 453 
f 427 447 453 
f 439 428 454 
f 434 439 454 
f 440 434 455 
f 428 443 455 
f 448 440 455 
f 443 448 455 
f 454 428 455 
f 434 454 455 
f 430 433 456 
f 441 430 456 
f 433 442 456 
f 449 432 457 
f 442 451 457 
f 451 449 457 
f 432 438 458 
f 441 450 458 
f 457 432 458 
f 450 457 458 
f 430 441 459 
f 447 430 459 
f 438 453 459 
f 453 447 459 
f 458 438 459 
f 441 458 459 
f 450 441 460 
f 441 456 460 
f 456 442 460 
f 457 450 460 
f 442 457 460 
f 442 433 461 
f 433 444 461 
f 451 442 461 
f 425 451 461 
f 431 437 462 
f 443 428 462 
f 437 443 462 
f 452 431 462 
f 428 452 462 
f 429 436 463 
f 440 429 463 
f 436 445 463 
f 435 425 464 
f 446 435 464 
f 444 446 464 
f 461 444 464 
f 425 461 464 
f 425 435 465 
f 435 449 465 
f 451 425 465 
f 449 451 465 
f 434 440 466 
f 445 434 466 
f 440 463 466 
o convex_13
v 0.015103 -0.020930 -0.000536
v 0.036502 -0.007445 -0.002589
v 0.036502 -0.007445 -0.004348
v 0.012463 -0.007445 0.001514
v 0.035619 -0.007739 0.005912
v 0.012463 -0.018584 0.006206
v 0.012463 -0.009790 -0.004934
v 0.012757 -0.019462 -0.004641
v 0.012463 -0.009790 0.005912
v 0.022725 -0.017411 0.004739
v 0.026534 -0.015066 -0.004641
v 0.023019 -0.007445 -0.005227
v 0.021550 -0.007445 0.005912
v 0.018327 -0.018584 0.005912
v 0.020379 -0.018877 -0.003175
v 0.032981 -0.010671 -0.003761
v 0.012463 -0.020930 0.002101
v 0.030050 -0.011843 0.006206
v 0.012463 -0.018584 -0.004934
v 0.035619 -0.008032 -0.004934
v 0.018033 -0.020049 0.002686
v 0.021550 -0.017118 -0.004934
v 0.032690 -0.010377 0.005619
v 0.028294 -0.008032 0.006206
v 0.024190 -0.016825 -0.002295
v 0.012463 -0.007739 -0.000829
v 0.035619 -0.007445 0.005912
v 0.014809 -0.020341 0.004446
v 0.014809 -0.020341 -0.003468
v 0.027412 -0.014187 0.005619
v 0.019793 -0.010670 -0.005227
v 0.036502 -0.007739 -0.002589
v 0.028294 -0.007445 -0.005227
v 0.020087 -0.017705 0.006206
v 0.012463 -0.020930 -0.000829
v 0.012463 -0.015359 0.006206
v 0.021259 -0.018584 0.000928
v 0.018327 -0.020049 -0.001122
v 0.018033 -0.018877 -0.004641
v 0.012463 -0.020049 0.005033
v 0.035327 -0.008325 0.005033
v 0.017741 -0.019462 0.005033
v 0.023019 -0.017411 -0.004055
v 0.021845 -0.007445 -0.004934
v 0.014517 -0.020930 0.002101
v 0.025068 -0.015651 0.005912
v 0.015983 -0.019169 0.005912
v 0.029464 -0.013015 0.000635
v 0.024190 -0.016532 0.004446
v 0.020379 -0.007445 0.005619
v 0.018033 -0.019756 -0.003175
f 505 509 517 
f 468 469 470 
f 472 470 473 
f 470 472 475 
f 470 469 478 
f 468 470 479 
f 472 473 483 
f 483 473 485 
f 469 482 486 
f 482 477 486 
f 486 477 488 
f 471 484 489 
f 479 475 490 
f 472 484 490 
f 477 482 491 
f 473 470 492 
f 471 468 493 
f 468 479 493 
f 484 471 493 
f 479 490 493 
f 490 484 493 
f 489 484 496 
f 473 478 497 
f 485 473 497 
f 488 485 497 
f 469 468 498 
f 468 471 498 
f 482 469 498 
f 478 469 499 
f 469 486 499 
f 486 488 499 
f 497 478 499 
f 488 497 499 
f 484 472 500 
f 467 483 501 
f 485 474 501 
f 483 485 501 
f 495 467 501 
f 474 495 501 
f 475 472 502 
f 472 490 502 
f 490 475 502 
f 476 487 503 
f 487 467 504 
f 503 487 504 
f 481 503 504 
f 474 485 505 
f 485 488 505 
f 495 474 505 
f 472 483 506 
f 483 494 506 
f 471 489 507 
f 489 482 507 
f 498 471 507 
f 482 498 507 
f 487 476 508 
f 494 487 508 
f 500 480 508 
f 476 500 508 
f 488 477 509 
f 477 491 509 
f 503 481 509 
f 491 503 509 
f 505 488 509 
f 470 478 510 
f 478 473 510 
f 492 470 510 
f 473 492 510 
f 483 467 511 
f 467 487 511 
f 494 483 511 
f 487 494 511 
f 496 484 512 
f 500 476 512 
f 484 500 512 
f 500 472 513 
f 480 500 513 
f 472 506 513 
f 506 494 513 
f 508 480 513 
f 494 508 513 
f 482 489 514 
f 491 482 514 
f 489 496 514 
f 514 496 515 
f 476 503 515 
f 503 491 515 
f 512 476 515 
f 496 512 515 
f 491 514 515 
f 470 475 516 
f 479 470 516 
f 475 479 516 
f 467 495 517 
f 504 467 517 
f 481 504 517 
f 495 505 517 
f 509 481 517 
o convex_14
v 0.041190 -0.003048 0.005911
v 0.032689 -0.002462 -0.006106
v 0.036791 -0.005393 -0.005812
v 0.019501 -0.007445 0.003859
v 0.036205 -0.007445 0.005618
v 0.032689 -0.001875 0.006496
v 0.022140 -0.007445 -0.004933
v 0.041778 -0.001875 -0.005812
v 0.026536 -0.002462 0.000342
v 0.036791 -0.007445 -0.004640
v 0.021847 -0.006858 0.005911
v 0.040605 -0.001875 0.006791
v 0.032396 -0.001875 -0.005812
v 0.040605 -0.004806 -0.005226
v 0.022726 -0.004514 -0.000243
v 0.023899 -0.003927 0.002394
v 0.018912 -0.007151 0.000635
v 0.039726 -0.003927 0.006791
v 0.029759 -0.002169 0.005618
v 0.040312 -0.004513 0.004445
v 0.021553 -0.007445 0.005911
v 0.022140 -0.006858 -0.004640
v 0.023313 -0.007445 -0.005226
v 0.024190 -0.003635 -0.000536
v 0.035912 -0.007445 0.005911
v 0.040605 -0.003341 -0.006106
v 0.041483 -0.001875 0.006204
v 0.041483 -0.003341 -0.003760
v 0.036498 -0.007445 0.004445
v 0.019208 -0.006858 0.002394
v 0.036498 -0.007445 -0.004933
v 0.031516 -0.001875 0.004738
v 0.040899 -0.003634 0.006204
v 0.039726 -0.005393 -0.001122
v 0.019794 -0.007151 -0.001709
v 0.028588 -0.003342 -0.004933
v 0.032689 -0.001875 -0.006106
v 0.023899 -0.003635 0.001221
v 0.019501 -0.007151 0.003859
f 533 547 556 
f 522 521 524 
f 522 524 527 
f 529 525 530 
f 524 521 534 
f 529 523 535 
f 528 523 536 
f 521 522 538 
f 523 528 538 
f 535 523 538 
f 519 520 540 
f 527 524 540 
f 526 530 541 
f 538 522 542 
f 535 538 542 
f 520 519 543 
f 525 531 543 
f 525 529 544 
f 531 525 545 
f 544 518 545 
f 525 544 545 
f 522 527 546 
f 537 522 546 
f 532 534 547 
f 534 521 547 
f 531 527 548 
f 540 520 548 
f 527 540 548 
f 520 543 548 
f 543 531 548 
f 523 529 549 
f 530 526 549 
f 529 530 549 
f 536 523 549 
f 526 536 549 
f 529 535 550 
f 537 531 550 
f 522 537 550 
f 542 522 550 
f 535 542 550 
f 518 544 550 
f 544 529 550 
f 545 518 550 
f 531 545 550 
f 527 531 551 
f 531 537 551 
f 546 527 551 
f 537 546 551 
f 534 532 552 
f 524 534 552 
f 539 524 552 
f 532 541 552 
f 541 539 552 
f 541 530 553 
f 539 541 553 
f 530 525 554 
f 524 539 554 
f 519 540 554 
f 540 524 554 
f 543 519 554 
f 525 543 554 
f 553 530 554 
f 539 553 554 
f 536 526 555 
f 533 536 555 
f 526 541 555 
f 541 532 555 
f 547 533 555 
f 532 547 555 
f 528 536 556 
f 536 533 556 
f 521 538 556 
f 538 528 556 
f 547 521 556 
o convex_15
v 0.032104 -0.000409 -0.003761
v 0.042365 0.001056 0.006204
v 0.042365 0.000470 0.006204
v 0.042071 0.001643 -0.006106
v 0.032691 0.002522 0.006204
v 0.040604 -0.001875 0.006792
v 0.041777 -0.001875 -0.005813
v 0.032399 -0.001875 0.006497
v 0.033277 0.002522 -0.005813
v 0.032691 -0.001875 -0.006106
v 0.041777 0.002522 0.006497
v 0.042071 0.002522 -0.005813
v 0.032399 0.000177 0.006792
v 0.032399 0.002522 -0.004054
v 0.031811 -0.001875 0.004737
v 0.033277 0.001936 -0.006400
v 0.041777 -0.001581 0.005910
v 0.042365 -0.000116 -0.005518
v 0.034449 -0.001288 -0.006400
v 0.036502 0.001936 0.006792
v 0.032104 0.000470 0.006204
v 0.032399 -0.001581 -0.006106
v 0.041484 -0.001875 -0.006106
v 0.042365 0.001643 0.005618
f 574 568 580 
f 563 562 564 
f 563 564 566 
f 559 558 567 
f 562 559 567 
f 565 561 567 
f 565 567 568 
f 564 562 569 
f 561 565 570 
f 566 564 571 
f 570 557 571 
f 565 568 572 
f 568 560 572 
f 570 565 572 
f 559 562 573 
f 562 563 573 
f 573 563 574 
f 558 559 574 
f 560 568 574 
f 559 573 574 
f 572 560 575 
f 567 561 576 
f 562 567 576 
f 561 569 576 
f 569 562 576 
f 569 561 577 
f 564 569 577 
f 561 570 577 
f 571 564 577 
f 570 571 577 
f 557 570 578 
f 571 557 578 
f 566 571 578 
f 570 572 578 
f 575 566 578 
f 572 575 578 
f 563 566 579 
f 574 563 579 
f 560 574 579 
f 575 560 579 
f 566 575 579 
f 567 558 580 
f 568 567 580 
f 558 574 580 
o convex_16
v 0.029468 0.003695 0.005324
v 0.037966 0.002522 -0.006107
v 0.037966 0.002816 -0.006107
v 0.041778 0.002522 0.006205
v 0.041484 0.003695 -0.005813
v 0.030053 0.002522 -0.004932
v 0.028587 0.003695 -0.005226
v 0.041191 0.003695 0.006499
v 0.033279 0.002522 0.006499
v 0.025948 0.003402 0.000050
v 0.041778 0.002522 -0.006107
v 0.030053 0.002816 0.005032
v 0.042071 0.002816 0.005618
v 0.025948 0.003695 0.000050
v 0.038845 0.003695 -0.006107
f 585 591 595 
f 582 584 586 
f 583 582 587 
f 581 585 587 
f 582 586 587 
f 585 581 588 
f 586 584 589 
f 588 581 589 
f 584 588 589 
f 587 586 590 
f 582 583 591 
f 584 582 591 
f 586 589 592 
f 589 581 592 
f 581 590 592 
f 590 586 592 
f 588 584 593 
f 585 588 593 
f 584 591 593 
f 591 585 593 
f 581 587 594 
f 590 581 594 
f 587 590 594 
f 583 587 595 
f 587 585 595 
f 591 583 595 
o convex_17
v -0.017734 0.011318 -0.004641
v -0.023008 0.026854 -0.002882
v -0.022426 0.026559 -0.002882
v -0.029160 0.026854 -0.005521
v -0.038541 0.026559 -0.003469
v -0.007178 0.008974 -0.002882
v -0.007178 0.012783 -0.005227
v -0.012165 0.007801 -0.005521
v -0.037955 0.026559 -0.005521
v -0.007473 0.004868 -0.003469
v -0.007178 0.016007 -0.002882
v -0.026232 0.020989 -0.002882
v -0.024177 0.026559 -0.004348
v -0.007178 0.009267 -0.005521
v -0.023008 0.015424 -0.003176
v -0.007178 0.004868 -0.005227
v -0.007178 0.014836 -0.004348
v -0.037955 0.025974 -0.005227
v -0.030335 0.026854 -0.002882
v -0.036198 0.025679 -0.003176
v -0.010408 0.006335 -0.003762
v -0.033267 0.022455 -0.003762
v -0.038839 0.026854 -0.004934
v -0.007767 0.005748 -0.003176
v -0.022426 0.026559 -0.003176
v -0.025937 0.026559 -0.004934
v -0.017734 0.018644 -0.005521
v -0.019789 0.012785 -0.003762
f 617 596 623 
f 598 597 601 
f 599 603 604 
f 598 601 606 
f 601 602 606 
f 601 597 607 
f 599 597 608 
f 602 601 609 
f 603 599 609 
f 601 605 611 
f 609 601 611 
f 603 609 611 
f 606 602 612 
f 603 596 613 
f 604 603 613 
f 597 599 614 
f 607 597 614 
f 607 614 615 
f 600 610 615 
f 610 607 615 
f 614 600 615 
f 596 603 616 
f 605 610 616 
f 611 605 616 
f 603 611 616 
f 610 600 617 
f 613 596 617 
f 600 613 617 
f 599 604 618 
f 613 600 618 
f 604 613 618 
f 614 599 618 
f 600 614 618 
f 605 601 619 
f 601 607 619 
f 610 605 619 
f 607 610 619 
f 597 598 620 
f 598 606 620 
f 608 597 620 
f 606 612 620 
f 612 608 620 
f 602 599 621 
f 599 608 621 
f 612 602 621 
f 608 612 621 
f 599 602 622 
f 602 609 622 
f 609 599 622 
f 596 616 623 
f 616 610 623 
f 610 617 623 
o convex_18
v -0.040890 -0.031776 0.000343
v -0.038839 -0.027672 0.003567
v -0.035615 -0.029725 0.003567
v -0.035615 -0.028259 -0.000830
v -0.035615 -0.033828 -0.000830
v -0.042062 -0.029139 -0.000830
v -0.040011 -0.031189 0.003567
v -0.035615 -0.032948 0.003567
v -0.041476 -0.028846 0.003567
v -0.037374 -0.033535 0.001515
v -0.042355 -0.030604 0.000929
v -0.039425 -0.032655 -0.000830
v -0.040011 -0.027672 0.003274
v -0.039718 -0.032069 0.002687
v -0.042355 -0.030312 -0.000830
v -0.041476 -0.028846 -0.000830
f 629 636 639 
f 625 626 627 
f 627 626 628 
f 627 628 629 
f 626 625 630 
f 628 626 631 
f 626 630 631 
f 630 625 632 
f 628 631 633 
f 632 629 634 
f 630 632 634 
f 629 628 635 
f 633 624 635 
f 628 633 635 
f 625 627 636 
f 632 625 636 
f 629 632 636 
f 631 630 637 
f 624 633 637 
f 633 631 637 
f 634 624 637 
f 630 634 637 
f 624 634 638 
f 634 629 638 
f 629 635 638 
f 635 624 638 
f 627 629 639 
f 636 627 639 
o convex_19
v -0.035614 -0.033829 -0.000830
v -0.014214 -0.020931 0.001808
v -0.014214 -0.020931 -0.000830
v -0.030629 -0.023863 -0.000537
v -0.035614 -0.029723 0.003567
v -0.029162 -0.031775 0.003274
v -0.023303 -0.020931 0.003567
v -0.029458 -0.032654 -0.000830
v -0.015680 -0.021225 0.003567
v -0.035614 -0.027964 -0.000830
v -0.023012 -0.020931 -0.000830
v -0.035614 -0.032947 0.003567
v -0.029749 -0.024450 0.003567
v -0.029749 -0.032947 0.000929
v -0.014800 -0.021811 0.001515
v -0.032388 -0.033533 0.002394
v -0.026232 -0.030603 -0.000537
v -0.026816 -0.030896 0.001808
v -0.027698 -0.030603 0.003567
v -0.027698 -0.022397 -0.000830
v -0.014800 -0.021811 -0.000830
v -0.031215 -0.033533 -0.000537
v -0.015976 -0.022104 0.002980
v -0.035028 -0.027380 -0.000537
v -0.035321 -0.033829 0.001808
v -0.031508 -0.032654 0.003567
f 658 651 665 
f 641 642 646 
f 640 642 647 
f 641 646 648 
f 646 644 648 
f 642 640 649 
f 640 644 649 
f 646 642 650 
f 642 649 650 
f 644 640 651 
f 648 644 651 
f 646 643 652 
f 644 646 652 
f 642 641 654 
f 653 645 655 
f 653 647 656 
f 656 654 657 
f 645 653 657 
f 653 656 657 
f 648 651 658 
f 645 657 658 
f 643 646 659 
f 649 643 659 
f 646 650 659 
f 650 649 659 
f 647 642 660 
f 642 654 660 
f 656 647 660 
f 654 656 660 
f 640 647 661 
f 647 653 661 
f 653 655 661 
f 641 648 662 
f 654 641 662 
f 657 654 662 
f 648 658 662 
f 658 657 662 
f 643 649 663 
f 649 644 663 
f 652 643 663 
f 644 652 663 
f 651 640 664 
f 655 651 664 
f 640 661 664 
f 661 655 664 
f 651 655 665 
f 655 645 665 
f 645 658 665 
o convex_20
v -0.022126 0.020697 -0.000831
v -0.021541 0.026854 -0.000831
v -0.018320 0.024507 -0.000831
v -0.026231 0.021577 -0.002882
v -0.010405 0.014248 -0.002882
v -0.022126 0.026560 -0.002882
v -0.010405 0.018354 -0.000831
v -0.028576 0.026854 -0.000831
v -0.010405 0.017768 -0.002882
v -0.029458 0.026854 -0.002882
v -0.013924 0.014542 -0.002589
v -0.010992 0.016009 -0.000831
v -0.027990 0.025093 -0.000831
v -0.025644 0.020991 -0.002589
v -0.028869 0.024215 -0.002589
v -0.013044 0.016302 -0.000831
v -0.010699 0.018647 -0.001710
v -0.013924 0.014542 -0.002882
v -0.025351 0.021869 -0.001417
v -0.017442 0.023629 -0.002003
f 682 674 685 
f 668 667 666 
f 670 669 671 
f 668 666 672 
f 666 667 673 
f 670 671 674 
f 672 670 674 
f 667 671 675 
f 671 669 675 
f 673 667 675 
f 670 672 677 
f 672 666 677 
f 676 670 677 
f 666 673 678 
f 679 678 680 
f 675 669 680 
f 673 675 680 
f 678 673 680 
f 669 679 680 
f 666 676 681 
f 677 666 681 
f 676 677 681 
f 668 672 682 
f 672 674 682 
f 669 670 683 
f 670 676 683 
f 676 679 683 
f 679 669 683 
f 676 666 684 
f 666 678 684 
f 679 676 684 
f 678 679 684 
f 667 668 685 
f 671 667 685 
f 674 671 685 
f 668 682 685 
o convex_21
v -0.007178 0.008972 -0.000831
v -0.010403 0.014247 -0.002882
v -0.010110 0.011611 -0.002882
v -0.007178 0.016006 -0.002882
v -0.010403 0.018353 -0.000831
v -0.007178 0.016886 -0.000831
v -0.007178 0.008972 -0.002882
v -0.009816 0.012197 -0.000831
v -0.010403 0.017472 -0.002882
f 687 690 694 
f 688 687 689 
f 686 689 691 
f 690 686 691 
f 689 690 691 
f 686 688 692 
f 688 689 692 
f 689 686 692 
f 688 686 693 
f 687 688 693 
f 686 690 693 
f 690 687 693 
f 689 687 694 
f 690 689 694 
