o convex_0
v -0.098734 -0.031656 0.001290
v -0.122377 0.012996 -0.000456
v -0.122377 0.012996 0.000417
v -0.098734 0.032698 0.001730
v -0.106616 -0.001444 -0.012718
v -0.114495 -0.030774 0.009609
v -0.115808 -0.030337 -0.009213
v -0.106616 0.018251 0.012677
v -0.117120 0.032261 -0.007898
v -0.115808 0.031823 0.009609
v -0.096547 0.003798 -0.008338
v -0.096547 -0.000125 0.008297
v -0.102674 -0.030337 -0.009650
v -0.104866 0.033135 -0.009210
v -0.121499 -0.015016 0.004354
v -0.104426 -0.029906 0.010049
v -0.103551 0.033135 0.009172
v -0.116682 0.016933 -0.010528
v -0.121062 -0.015890 -0.004835
v -0.112743 -0.009323 0.012237
v -0.120625 0.032261 -0.003520
v -0.120187 0.016502 0.007422
v -0.108806 -0.034287 -0.003083
v -0.110991 -0.014578 -0.012718
v -0.118872 -0.029032 0.003042
v -0.108806 0.013871 -0.012718
v -0.098297 -0.030344 -0.003958
v -0.105741 -0.013704 0.012237
v -0.110116 0.034454 0.001730
v -0.100487 0.033135 -0.005273
v -0.117997 -0.015890 0.009172
v -0.114933 0.017807 0.011799
v -0.120187 0.032261 0.003480
v -0.119750 0.013871 -0.007900
v -0.116682 -0.015016 -0.010528
v -0.096547 -0.015890 -0.000020
v -0.096547 0.017807 -0.000456
v -0.112305 0.032691 -0.010088
v -0.105304 -0.033843 0.005232
v -0.098734 -0.030344 0.004357
v -0.111865 0.032698 0.010924
v -0.111430 -0.030781 -0.010965
v -0.104866 -0.014141 -0.012278
v -0.104866 0.016065 -0.011840
v -0.111430 -0.030344 0.010924
v -0.096547 0.004235 0.008297
v -0.103551 -0.033843 -0.004395
v -0.120187 -0.025526 -0.001768
v -0.114058 -0.032531 0.006544
v -0.122377 0.016058 -0.002645
v -0.121937 -0.015890 -0.001331
v -0.099612 0.033135 0.004794
v -0.117120 -0.030774 -0.007460
v -0.112743 0.016058 -0.012278
v -0.103989 0.019126 0.011799
v -0.121937 0.015620 0.003917
v -0.096547 -0.000125 -0.008338
v -0.112305 0.017807 0.012674
v -0.109243 -0.011954 0.012677
v -0.117120 -0.030337 0.007422
v -0.119750 -0.015453 -0.007463
v -0.114495 -0.014578 -0.011838
v -0.102236 -0.030337 0.008734
v -0.103114 -0.012829 0.011359
f 16 63 64 
f 5 24 26 
f 9 21 29 
f 11 14 30 
f 14 29 30 
f 6 20 31 
f 22 15 31 
f 22 31 32 
f 10 22 32 
f 31 20 32 
f 22 10 33 
f 29 21 33 
f 9 18 34 
f 21 9 34 
f 34 18 35 
f 11 12 36 
f 1 27 36 
f 12 11 37 
f 30 4 37 
f 11 30 37 
f 18 9 38 
f 14 26 38 
f 9 29 38 
f 29 14 38 
f 1 36 40 
f 36 12 40 
f 39 1 40 
f 8 17 41 
f 17 29 41 
f 10 32 41 
f 33 10 41 
f 29 33 41 
f 24 5 43 
f 13 42 43 
f 42 24 43 
f 14 11 44 
f 5 26 44 
f 26 14 44 
f 43 5 44 
f 11 43 44 
f 20 6 45 
f 16 28 45 
f 39 16 45 
f 37 4 46 
f 12 37 46 
f 27 1 47 
f 13 27 47 
f 1 39 47 
f 39 23 47 
f 23 42 47 
f 42 13 47 
f 25 15 48 
f 23 39 49 
f 45 6 49 
f 39 45 49 
f 2 3 50 
f 33 21 50 
f 34 19 50 
f 21 34 50 
f 3 2 51 
f 15 3 51 
f 48 15 51 
f 19 48 51 
f 2 50 51 
f 50 19 51 
f 29 17 52 
f 4 30 52 
f 30 29 52 
f 17 46 52 
f 46 4 52 
f 7 42 53 
f 42 23 53 
f 48 19 53 
f 25 48 53 
f 23 49 53 
f 26 24 54 
f 18 38 54 
f 38 26 54 
f 17 8 55 
f 8 28 55 
f 12 46 55 
f 46 17 55 
f 3 15 56 
f 15 22 56 
f 22 33 56 
f 50 3 56 
f 33 50 56 
f 27 13 57 
f 11 36 57 
f 36 27 57 
f 43 11 57 
f 13 43 57 
f 32 20 58 
f 8 41 58 
f 41 32 58 
f 28 8 59 
f 20 45 59 
f 45 28 59 
f 8 58 59 
f 58 20 59 
f 15 25 60 
f 6 31 60 
f 31 15 60 
f 49 6 60 
f 25 53 60 
f 53 49 60 
f 19 34 61 
f 35 7 61 
f 34 35 61 
f 7 53 61 
f 53 19 61 
f 7 35 62 
f 35 18 62 
f 42 7 62 
f 24 42 62 
f 54 24 62 
f 18 54 62 
f 16 39 63 
f 40 12 63 
f 39 40 63 
f 28 16 64 
f 55 28 64 
f 12 55 64 
f 63 12 64 
o convex_1
v -0.091729 0.009935 0.002168
v -0.096544 -0.006265 -0.001771
v -0.096544 -0.005827 -0.003522
v -0.089539 -0.004951 -0.002209
v -0.096544 0.000303 0.008299
v -0.096544 0.006868 -0.007025
v -0.089539 0.003805 -0.007025
v -0.089539 -0.001008 0.006546
v -0.096544 0.009057 0.005233
v -0.089977 0.006868 0.006108
v -0.096106 -0.004511 -0.007025
v -0.095230 -0.005389 0.004357
v -0.089539 0.008621 -0.003084
v -0.096544 0.009935 -0.003522
v -0.090853 0.000741 -0.007901
v -0.090414 -0.005389 0.002606
v -0.096544 0.003805 -0.008339
v -0.091290 0.003805 0.007860
v -0.090853 0.006868 -0.006587
v -0.089977 -0.003200 -0.005711
v -0.096544 0.005556 0.007860
v -0.096544 -0.003636 0.006546
v -0.090414 -0.001886 0.006984
v -0.089539 0.008621 0.002606
v -0.090414 0.009935 -0.000895
v -0.096544 0.010373 0.001292
v -0.096544 -0.000133 -0.008339
v -0.090853 0.008621 -0.004836
v -0.096544 -0.006265 0.002168
v -0.089977 -0.004073 0.004795
v -0.091729 0.004241 -0.007901
v -0.090853 -0.005389 -0.002647
f 75 84 96 
f 67 66 69 
f 67 69 70 
f 68 71 72 
f 70 69 73 
f 65 73 74 
f 72 71 77 
f 70 73 78 
f 67 70 81 
f 72 74 82 
f 77 71 83 
f 71 68 84 
f 79 71 84 
f 75 79 84 
f 73 69 85 
f 74 73 85 
f 69 82 85 
f 82 74 85 
f 69 66 86 
f 82 69 87 
f 72 82 87 
f 69 86 87 
f 65 74 88 
f 74 72 88 
f 72 77 88 
f 88 77 89 
f 65 88 89 
f 89 78 90 
f 73 65 90 
f 78 73 90 
f 65 89 90 
f 75 67 91 
f 79 75 91 
f 67 81 91 
f 81 79 91 
f 70 78 92 
f 77 83 92 
f 83 70 92 
f 89 77 92 
f 78 89 92 
f 66 80 93 
f 80 76 93 
f 86 66 93 
f 76 86 93 
f 68 72 94 
f 80 68 94 
f 76 80 94 
f 86 76 94 
f 72 87 94 
f 87 86 94 
f 71 79 95 
f 81 70 95 
f 79 81 95 
f 83 71 95 
f 70 83 95 
f 66 67 96 
f 67 75 96 
f 80 66 96 
f 68 80 96 
f 84 68 96 
o convex_2
v -0.062388 -0.004074 -0.002645
v -0.008111 0.010811 0.001730
v -0.008111 0.010811 -0.001770
v -0.089531 0.008620 0.002168
v -0.010295 0.000305 0.006109
v -0.008111 0.002494 -0.007026
v -0.089531 0.004680 -0.006586
v -0.089531 0.001181 0.006985
v -0.089531 -0.004950 0.001292
v -0.010295 -0.003199 -0.000457
v -0.008111 0.005993 0.006546
v -0.089531 -0.002323 -0.005711
v -0.089531 0.006869 0.005234
v -0.008111 0.007744 -0.006148
v -0.089531 0.007744 -0.004397
v -0.008111 -0.001885 -0.004397
v -0.089092 -0.004074 0.003920
v -0.008111 -0.002761 0.002167
v -0.089531 0.000741 -0.007025
v -0.009418 0.009058 0.004793
v -0.085154 0.009058 -0.000894
v -0.089531 -0.001885 0.006109
v -0.089531 0.004680 0.006546
v -0.089531 -0.004074 -0.003959
v -0.021239 0.005118 -0.007026
v -0.012925 -0.000134 -0.006148
v -0.012925 -0.001448 0.004793
v -0.009418 0.009933 -0.003961
v -0.008111 0.001617 0.006546
v -0.082962 0.008182 0.003920
v -0.039191 0.010373 0.000853
v -0.089092 -0.004950 -0.001770
v -0.037007 0.010373 -0.001332
v -0.022985 0.007744 0.005670
v -0.089531 0.006431 -0.005711
v -0.073771 -0.000572 -0.006586
v -0.089531 0.003365 -0.007025
v -0.014671 -0.003199 -0.001770
v -0.021239 0.008620 -0.005273
v -0.087777 0.008620 -0.002645
v -0.059327 -0.002323 -0.005273
v -0.009856 -0.002323 0.003481
v -0.015109 0.009933 0.003481
v -0.012048 0.006869 -0.006587
v -0.089092 0.002492 0.006985
v -0.043137 0.009935 0.002167
v -0.079024 -0.000572 0.006546
v -0.065019 -0.004074 0.002606
v -0.047944 -0.004075 0.000853
v -0.082524 -0.002323 0.005671
v -0.058012 0.009058 -0.003522
v -0.081655 0.009058 0.001731
v -0.021678 -0.002761 -0.003522
v -0.082962 0.005118 -0.006586
v -0.019055 0.010811 -0.000457
f 129 127 151 
f 99 98 102 
f 100 103 104 
f 104 103 105 
f 102 98 107 
f 105 103 108 
f 100 104 109 
f 99 102 110 
f 103 100 111 
f 102 107 112 
f 106 112 114 
f 112 107 114 
f 108 103 115 
f 107 98 116 
f 104 105 118 
f 105 113 118 
f 109 104 119 
f 105 108 120 
f 102 115 121 
f 102 112 122 
f 99 110 124 
f 114 107 125 
f 100 109 126 
f 109 116 126 
f 120 97 128 
f 105 120 128 
f 99 124 129 
f 117 127 129 
f 107 116 130 
f 116 109 130 
f 119 107 130 
f 109 119 130 
f 103 111 131 
f 115 102 132 
f 108 115 132 
f 102 122 132 
f 122 108 132 
f 115 103 133 
f 121 115 133 
f 112 106 134 
f 128 97 134 
f 106 128 134 
f 124 110 135 
f 111 124 135 
f 110 131 135 
f 131 111 135 
f 111 100 136 
f 100 117 136 
f 117 129 136 
f 120 108 137 
f 112 120 137 
f 122 112 137 
f 108 122 137 
f 101 123 138 
f 123 113 138 
f 125 101 138 
f 114 125 138 
f 116 98 139 
f 126 116 139 
f 110 102 140 
f 102 121 140 
f 119 104 141 
f 107 119 141 
f 104 125 141 
f 125 107 141 
f 98 127 142 
f 139 98 142 
f 126 139 142 
f 118 101 143 
f 104 118 143 
f 125 104 143 
f 101 125 143 
f 113 105 144 
f 138 113 144 
f 114 138 144 
f 106 114 145 
f 128 106 145 
f 105 128 145 
f 144 105 145 
f 114 144 145 
f 101 118 146 
f 118 113 146 
f 123 101 146 
f 113 123 146 
f 124 111 147 
f 129 124 147 
f 111 136 147 
f 136 129 147 
f 117 100 148 
f 100 126 148 
f 127 117 148 
f 126 142 148 
f 142 127 148 
f 97 120 149 
f 120 112 149 
f 112 134 149 
f 134 97 149 
f 103 131 150 
f 131 110 150 
f 133 103 150 
f 121 133 150 
f 110 140 150 
f 140 121 150 
f 98 99 151 
f 127 98 151 
f 99 129 151 
o convex_3
v 0.000660 -0.005386 -0.001331
v 0.054947 0.017378 0.000852
v 0.054947 0.017378 -0.000023
v 0.082095 -0.005386 -0.001771
v 0.028682 0.001617 0.008736
v -0.002836 0.008181 -0.007462
v -0.005909 0.009933 0.005669
v 0.082095 0.005556 -0.008776
v 0.081654 0.012998 0.006546
v 0.022988 -0.002761 -0.007902
v 0.082095 -0.002324 0.005669
v 0.082095 0.015626 -0.005273
v -0.005467 -0.002761 0.004794
v 0.011166 0.014311 -0.003522
v 0.030439 -0.005823 0.004355
v -0.008098 -0.000572 -0.005711
v 0.016860 0.005556 -0.009653
v 0.024744 0.013435 0.006546
v 0.081654 -0.001445 -0.007462
v 0.044000 -0.006701 -0.003522
v 0.008544 0.005993 0.008736
v 0.063264 0.006429 0.008736
v -0.005909 0.012559 0.001291
v 0.035251 0.012559 -0.007462
v 0.082095 0.016500 0.003043
v -0.008098 0.001617 0.006546
v 0.030439 0.016500 0.002166
v 0.064138 0.001620 -0.009214
v 0.082095 0.011246 -0.007900
v 0.049253 -0.006701 0.002166
v -0.008098 0.009933 -0.003958
v 0.041810 0.016500 -0.003522
v 0.015986 -0.001009 0.007860
v -0.005467 0.002056 -0.007900
v 0.081213 0.004245 0.007858
v 0.039179 0.011685 0.007860
v 0.007228 -0.004510 -0.005273
v 0.025177 -0.007141 -0.001333
v 0.046189 0.015187 0.005669
v 0.049253 -0.005386 -0.005711
v -0.006341 -0.004510 0.000415
v 0.082095 0.016939 -0.002208
v 0.018176 0.001180 -0.009214
v 0.082095 -0.004073 0.003919
v 0.018176 -0.006262 0.002604
v 0.039179 -0.004073 0.006106
v 0.015545 0.012559 -0.006588
v 0.005480 0.013435 0.003919
v -0.002836 0.002056 0.007858
v -0.005026 0.011685 -0.003958
v -0.005909 -0.002321 -0.005711
v 0.082095 -0.004510 -0.004397
v 0.021681 0.016061 0.000415
v 0.027367 -0.005825 -0.005273
v -0.008098 0.005993 0.006546
v 0.021239 0.009057 -0.008776
v 0.008102 -0.003197 0.006106
v 0.070706 0.009057 0.008297
v 0.019924 0.008181 0.008736
v 0.039621 -0.000569 0.007860
v 0.042252 -0.003637 -0.007462
v 0.033935 0.014750 -0.005711
v 0.003291 0.008181 0.007858
v 0.046622 -0.007141 -0.001333
f 189 171 215 
f 155 159 162 
f 162 159 163 
f 172 156 173 
f 160 162 176 
f 162 163 176 
f 153 154 178 
f 168 159 179 
f 159 170 179 
f 163 159 180 
f 159 168 180 
f 175 163 180 
f 167 177 182 
f 157 168 185 
f 182 157 185 
f 167 182 185 
f 162 160 186 
f 173 156 186 
f 152 188 189 
f 176 153 190 
f 160 176 190 
f 153 178 190 
f 178 169 190 
f 187 160 190 
f 169 187 190 
f 164 177 192 
f 177 167 192 
f 154 153 193 
f 153 176 193 
f 176 163 193 
f 183 154 193 
f 163 183 193 
f 168 179 194 
f 179 161 194 
f 161 185 194 
f 185 168 194 
f 155 162 195 
f 181 155 195 
f 166 181 195 
f 181 166 196 
f 152 189 196 
f 189 181 196 
f 164 192 196 
f 192 152 196 
f 195 162 197 
f 166 195 197 
f 158 169 199 
f 174 158 199 
f 169 178 199 
f 156 172 200 
f 177 164 200 
f 184 156 200 
f 174 165 201 
f 157 182 201 
f 182 174 201 
f 198 157 201 
f 165 198 201 
f 185 161 202 
f 167 185 202 
f 188 152 202 
f 161 188 202 
f 152 192 202 
f 192 167 202 
f 159 155 203 
f 170 159 203 
f 155 171 203 
f 191 170 203 
f 171 191 203 
f 165 174 204 
f 178 154 204 
f 154 183 204 
f 183 165 204 
f 174 199 204 
f 199 178 204 
f 188 161 205 
f 171 189 205 
f 189 188 205 
f 191 171 205 
f 158 174 206 
f 174 182 206 
f 182 177 206 
f 177 200 206 
f 168 157 207 
f 180 168 207 
f 175 180 207 
f 157 198 207 
f 198 175 207 
f 164 196 208 
f 196 166 208 
f 197 184 208 
f 166 197 208 
f 200 164 208 
f 184 200 208 
f 186 160 209 
f 173 186 209 
f 160 187 209 
f 209 187 210 
f 172 173 210 
f 187 169 210 
f 173 209 210 
f 156 184 211 
f 186 156 211 
f 162 186 211 
f 197 162 211 
f 184 197 211 
f 161 179 212 
f 179 170 212 
f 170 191 212 
f 205 161 212 
f 191 205 212 
f 163 175 213 
f 183 163 213 
f 165 183 213 
f 198 165 213 
f 175 198 213 
f 169 158 214 
f 200 172 214 
f 158 206 214 
f 206 200 214 
f 210 169 214 
f 172 210 214 
f 171 155 215 
f 155 181 215 
f 181 189 215 
o convex_4
v 0.082095 -0.004947 -0.003520
v 0.117996 0.020006 -0.000022
v 0.117996 0.020006 -0.001331
v 0.119747 -0.005387 0.000854
v 0.082095 0.008182 0.007859
v 0.082975 0.011684 -0.007900
v 0.118434 0.003807 -0.010967
v 0.118872 0.008619 0.008736
v 0.082095 -0.002322 0.005670
v 0.082095 0.016063 0.003919
v 0.118872 0.016061 -0.008336
v 0.119309 -0.003635 -0.007460
v 0.082095 0.001180 -0.008338
v 0.115808 -0.000570 0.007421
v 0.082095 0.016501 -0.003520
v 0.119309 0.016061 0.006108
v 0.121935 0.016061 -0.000897
v 0.122377 -0.000570 0.003481
v 0.121935 0.000742 -0.007022
v 0.100485 -0.005387 0.002605
v 0.117121 0.009494 -0.010967
v 0.083412 0.012121 0.006983
v 0.119309 -0.005387 -0.004396
v 0.112303 -0.001445 -0.009213
v 0.116683 0.017813 -0.007022
v 0.088664 0.003807 0.007859
v 0.117996 -0.003197 0.005670
v 0.082095 0.006872 -0.008776
v 0.082095 -0.005387 0.000414
v 0.082095 -0.002760 -0.006587
v 0.083850 0.017376 0.000414
v 0.117121 0.019126 0.003043
v 0.121935 0.013434 0.003919
v 0.121498 0.012996 -0.007022
v 0.113178 0.012996 0.007859
v 0.082095 0.014311 -0.006587
v 0.117121 0.014311 -0.009649
v 0.119309 0.002932 0.008297
v 0.122377 -0.002760 -0.002207
v 0.101799 -0.005827 -0.001771
v 0.082537 0.015186 0.005232
v 0.118434 0.019563 -0.003958
v 0.113178 0.004684 0.008736
v 0.082095 0.000742 0.006983
v 0.086914 0.007307 0.008297
v 0.082095 -0.004072 0.003919
v 0.112744 0.015623 0.006545
v 0.118872 0.018251 0.004356
v 0.113616 -0.004510 0.004356
v 0.118872 0.010369 -0.010525
v 0.109677 0.019126 -0.003522
v 0.113178 -0.003635 -0.007462
v 0.119747 -0.002322 0.006108
v 0.084288 0.009934 0.007859
v 0.113178 0.009494 0.008736
v 0.121498 0.016498 -0.004396
v 0.121498 0.009056 0.005670
v 0.118872 -0.000570 -0.009649
v 0.121498 0.017376 -0.000459
v 0.110552 0.018251 -0.005711
v 0.112744 0.000745 -0.010089
v 0.082537 0.016938 0.002167
v 0.111865 -0.002320 0.006545
v 0.107488 -0.005827 0.000416
f 244 255 279 
f 220 216 224 
f 216 220 225 
f 216 225 228 
f 228 225 230 
f 222 228 243 
f 228 230 243 
f 221 236 243 
f 236 222 243 
f 224 216 244 
f 216 228 245 
f 228 239 245 
f 217 218 246 
f 233 232 248 
f 232 234 249 
f 223 231 250 
f 221 243 251 
f 243 230 251 
f 236 221 252 
f 240 226 252 
f 221 251 252 
f 251 240 252 
f 232 233 254 
f 233 219 254 
f 227 234 254 
f 234 232 254 
f 238 227 254 
f 219 238 254 
f 216 238 255 
f 244 216 255 
f 225 220 256 
f 220 237 256 
f 247 225 256 
f 226 240 257 
f 253 223 258 
f 229 253 258 
f 220 224 259 
f 224 229 259 
f 258 241 259 
f 229 258 259 
f 241 258 260 
f 220 259 260 
f 259 241 260 
f 224 244 261 
f 244 235 261 
f 250 231 262 
f 237 250 262 
f 256 237 262 
f 256 262 263 
f 217 247 263 
f 231 248 263 
f 247 256 263 
f 262 231 263 
f 235 219 264 
f 219 242 264 
f 261 235 264 
f 234 222 265 
f 222 236 265 
f 226 249 265 
f 249 234 265 
f 236 252 265 
f 252 226 265 
f 246 218 266 
f 230 246 266 
f 218 257 266 
f 238 216 267 
f 227 238 267 
f 239 227 267 
f 216 245 267 
f 245 239 267 
f 219 233 268 
f 229 242 268 
f 242 219 268 
f 253 229 268 
f 233 253 268 
f 237 220 269 
f 250 237 269 
f 220 260 269 
f 269 260 270 
f 223 250 270 
f 258 223 270 
f 260 258 270 
f 250 269 270 
f 249 226 271 
f 232 249 271 
f 226 257 271 
f 231 223 272 
f 248 231 272 
f 233 248 272 
f 223 253 272 
f 253 233 272 
f 222 234 273 
f 234 227 273 
f 227 239 273 
f 218 217 274 
f 248 232 274 
f 257 218 274 
f 217 263 274 
f 263 248 274 
f 232 271 274 
f 271 257 274 
f 240 251 275 
f 251 230 275 
f 257 240 275 
f 230 266 275 
f 266 257 275 
f 228 222 276 
f 239 228 276 
f 222 273 276 
f 273 239 276 
f 230 225 277 
f 217 246 277 
f 246 230 277 
f 247 217 277 
f 225 247 277 
f 229 224 278 
f 242 229 278 
f 224 261 278 
f 264 242 278 
f 261 264 278 
f 219 235 279 
f 238 219 279 
f 235 244 279 
f 255 238 279 
