####
#
# OBJ File Generated by Meshlab
#
####
# Object decomp.obj
#
# Vertices: 113
# Faces: 218
#
####
vn 0.774191 1.203151 1.414892
v -0.006492 0.029319 0.015282
vn 1.827438 -2.414936 1.249132
v -0.005717 -0.030188 0.014123
vn 3.456113 0.035575 3.006816
v -0.005269 0.001746 0.015155
vn 1.656253 0.717675 -2.484522
v -0.006498 0.028224 -0.015601
vn -6.242752 -0.135783 0.331647
v -0.015766 -0.001781 0.000732
vn 6.275499 -0.100776 -0.240419
v -0.005706 -0.014548 0.001035
vn -1.135102 -2.020352 4.638178
v -0.006141 -0.029093 0.015204
vn -4.255715 2.931865 0.202748
v -0.015700 0.028705 -0.001272
vn 6.278291 0.022779 -0.236996
v -0.005706 0.001886 0.001035
vn 0.827145 -0.734021 -2.070810
v -0.006540 -0.014627 -0.014911
vn 2.496590 -0.992621 3.353769
v -0.005890 -0.029016 0.015216
vn -3.346336 -2.984088 0.359659
v -0.014703 -0.029946 0.004095
vn -5.551579 0.620573 2.546519
v -0.014360 0.025066 0.007045
vn -1.627455 3.020738 -2.690022
v -0.008760 0.029988 -0.014338
vn 3.201195 -3.138000 -0.237295
v -0.005794 -0.030270 0.009869
vn -2.991632 -3.041307 2.738392
v -0.011083 -0.029867 0.011422
vn -5.668853 -0.487986 -2.118316
v -0.014538 -0.013281 -0.006139
vn -5.961759 0.641272 1.311533
v -0.015502 0.025312 0.003524
vn -3.003796 2.888762 2.112728
v -0.012299 0.028904 0.009820
vn 2.529660 3.911052 0.079742
v -0.006957 0.030535 0.001076
vn -2.753306 -0.092980 -5.568735
v -0.007266 0.023967 -0.015288
vn 1.395842 -4.100281 -1.848155
v -0.009547 -0.030551 0.001031
vn -1.680349 -4.796427 2.257843
v -0.009943 -0.030102 0.012037
vn -4.965957 -0.077475 3.536149
v -0.013221 -0.020129 0.009672
vn -3.180497 -1.826394 4.583179
v -0.008740 -0.029256 0.013525
vn -2.792671 -2.792729 -1.462408
v -0.014519 -0.029844 0.001202
vn -4.490981 -0.753584 -4.162132
v -0.010849 -0.011770 -0.011601
vn -5.911423 1.092498 -0.549483
v -0.015813 0.027985 -0.004019
vn -5.908823 -0.295791 1.816085
v -0.014549 -0.023947 0.006333
vn -3.835262 3.342086 0.705489
v -0.015440 0.028761 0.000780
vn 1.575608 3.044067 -1.883371
v -0.007202 0.029982 -0.014631
vn -1.150019 6.139373 0.249632
v -0.010416 0.030097 0.001000
vn -2.755805 0.502239 -5.542946
v -0.007488 0.028469 -0.015162
vn -4.029589 0.663982 -4.592669
v -0.011015 0.028836 -0.012790
vn -5.071046 0.122480 3.700377
v -0.013085 0.025226 0.008898
vn -4.213261 0.254332 4.631203
v -0.007213 0.028611 0.014804
vn -3.324559 1.275063 4.697172
v -0.006755 0.029123 0.015177
vn -4.588513 -1.601022 3.205082
v -0.011875 -0.029306 0.010738
vn -6.258179 -0.238820 -0.437074
v -0.015734 -0.001915 0.000004
vn -4.869408 -1.226440 -3.578960
v -0.013377 -0.014491 -0.007777
vn -3.223390 2.593544 -1.377243
v -0.014892 0.029158 -0.008142
vn -6.134676 0.000535 1.125785
v -0.015577 0.009387 0.003205
vn -3.965394 -0.184186 -4.859617
v -0.009668 -0.009207 -0.012751
vn -5.675399 -1.164979 1.924051
v -0.014590 -0.029356 0.004908
vn -6.182864 -0.084546 -0.767908
v -0.015788 0.005950 -0.002816
vn -4.278120 -1.798198 -4.218182
v -0.007244 -0.014497 -0.014258
vn -3.669353 2.576654 -3.045280
v -0.012074 0.029308 -0.011638
vn -5.125035 -0.184160 -3.611138
v -0.013374 0.004829 -0.009116
vn -4.730789 -0.139313 -4.119385
v -0.012074 0.023682 -0.011523
vn 1.577766 2.134450 4.986520
v 0.005086 0.029085 0.016201
vn 5.727570 -1.134537 1.206976
v 0.017901 -0.026752 0.004485
vn 3.668738 2.806577 -1.039403
v 0.016965 0.029720 -0.003557
vn -0.959189 2.394467 -4.714514
v -0.004132 0.029311 -0.015901
vn -2.529391 -2.280474 1.545504
v -0.013395 -0.030040 0.008152
vn 1.830564 -2.690020 -3.837438
v 0.007684 -0.028961 -0.015221
vn -0.533139 5.840712 -0.819942
v -0.001525 0.033788 -0.003949
vn 5.174181 0.456322 3.369569
v 0.014822 0.025703 0.009763
vn 0.543056 -2.163739 4.041574
v 0.005036 -0.028754 0.017467
vn 5.332878 -0.786445 -2.907338
v 0.016782 -0.025800 -0.006924
vn 3.447746 0.912845 -4.866882
v 0.010077 0.025688 -0.013861
vn -3.437710 -1.516014 -4.099638
v -0.009967 -0.027855 -0.012892
vn 0.797138 5.977020 0.291463
v 0.004313 0.033677 0.001608
vn 0.937429 2.765456 -3.697948
v 0.003951 0.029484 -0.016274
vn -3.581261 2.464527 1.732769
v -0.014122 0.028878 0.006537
vn 4.536833 2.413880 1.614834
v 0.016848 0.029303 0.005038
vn 3.785504 -0.008585 4.807950
v 0.012709 -0.014905 0.013658
vn 0.555057 -6.190262 0.205734
v 0.010501 -0.030982 0.004449
vn 6.043012 0.026031 -1.388321
v 0.018044 -0.014592 -0.003592
vn 3.850906 -0.935851 -4.558191
v 0.012313 -0.025917 -0.012678
vn 5.132398 0.332138 -3.519876
v 0.014340 0.026350 -0.009197
vn -0.583984 -3.172714 -3.000427
v -0.001836 -0.030836 -0.015589
vn 2.134797 5.209929 -2.223523
v 0.013839 0.029637 -0.008241
vn -2.242281 2.451173 -2.718676
v -0.007202 0.029982 -0.014631
vn 1.549663 0.035338 -5.882560
v 0.005180 0.013776 -0.016611
vn -1.002156 2.719934 3.484771
v -0.003791 0.029895 0.016307
vn -5.638665 -1.125171 -0.935995
v -0.014574 -0.026589 -0.004667
vn 5.691678 0.010047 2.587410
v 0.016810 -0.018376 0.007976
vn 2.346206 2.826034 2.805960
v 0.011936 0.030042 0.012709
vn 3.853934 2.965313 0.338326
v 0.017216 0.029845 0.002358
vn 2.763214 0.138060 5.627488
v 0.009710 0.005009 0.014798
vn 2.176427 -2.963080 2.493092
v 0.012250 -0.030015 0.013043
vn 3.429822 -3.875195 -0.459291
v 0.017101 -0.029717 -0.002399
vn 5.684111 0.134506 -2.454772
v 0.017024 0.010137 -0.005545
vn 4.613244 0.093390 -4.199599
v 0.013311 -0.006054 -0.011590
vn -3.309789 -2.999055 -1.772386
v -0.012305 -0.030248 -0.008818
vn -1.236252 -5.966022 -0.263398
v -0.010785 -0.030974 -0.006743
vn -2.119735 -0.154751 -5.760102
v -0.005942 -0.020242 -0.015416
vn 1.229420 6.018676 -1.310112
v -0.000155 0.033512 -0.003945
vn 4.029002 2.710452 -2.813331
v 0.014627 0.029176 -0.008203
vn -3.844593 2.399356 -0.368153
v -0.015260 0.028975 0.000900
vn 2.504945 0.294637 -5.754101
v 0.007407 0.021518 -0.015254
vn 0.417561 -1.285468 -5.691785
v 0.002757 -0.027970 -0.016627
vn -0.424807 0.194026 -6.209339
v -0.000254 0.024396 -0.016640
vn -1.026832 5.998376 0.742996
v -0.002141 0.033490 0.001866
vn 0.268808 2.855574 3.907351
v 0.001780 0.029640 0.016708
vn -2.483967 2.500147 3.165157
v -0.006341 0.029461 0.015220
vn -5.675735 0.049663 -2.187523
v -0.014413 -0.014014 -0.006134
vn 5.667093 0.154978 2.692504
v 0.015567 0.014551 0.008981
vn 6.089159 -0.020776 1.071465
v 0.018104 -0.018581 0.004332
vn 5.082232 1.831987 3.080078
v 0.014477 0.029238 0.009133
vn 4.903925 0.145369 3.748869
v 0.014688 0.004819 0.011159
vn 6.166829 0.137753 -0.403639
v 0.018197 0.005344 -0.001265
vn 2.817558 0.246020 5.588902
v 0.008828 0.025367 0.014716
vn 3.570320 -0.310399 5.137753
v 0.012160 -0.023255 0.013559
vn 5.139467 -0.471195 3.351719
v 0.015801 -0.023338 0.009829
vn -1.194784 -2.957367 3.071058
v -0.000920 -0.029917 0.015742
vn 3.436248 -3.462150 1.294155
v 0.016407 -0.029677 0.006308
vn 5.647082 -1.199795 -1.191099
v 0.018042 -0.026938 -0.003575
vn 2.742573 -3.632823 -1.974586
v 0.014553 -0.029844 -0.008497
vn 5.789833 0.268138 -2.290802
v 0.016793 0.024527 -0.004814
vn 4.805808 -0.289793 -3.921806
v 0.014199 -0.023658 -0.010864
vn 3.672503 0.023866 -5.042617
v 0.012111 -0.014801 -0.012776
vn 3.838614 2.104284 -3.855618
v 0.013318 0.028249 -0.010288
# 113 vertices, 0 vertices normals

f 1//1 3//3 4//4
f 6//6 3//3 2//2
f 9//9 6//6 4//4
f 9//9 4//4 3//3
f 9//9 3//3 6//6
f 10//10 4//4 6//6
f 11//11 7//7 2//2
f 11//11 2//2 3//3
f 11//11 3//3 1//1
f 11//11 1//1 7//7
f 15//15 10//10 6//6
f 15//15 6//6 2//2
f 18//18 8//8 5//5
f 19//19 18//18 13//13
f 20//20 1//1 4//4
f 21//21 4//4 10//10
f 22//22 10//10 15//15
f 22//22 15//15 2//2
f 23//23 16//16 12//12
f 23//23 2//2 7//7
f 23//23 22//22 2//2
f 23//23 12//12 22//22
f 25//25 23//23 7//7
f 25//25 16//16 23//23
f 26//26 22//22 12//12
f 26//26 10//10 22//22
f 28//28 5//5 8//8
f 29//29 5//5 12//12
f 29//29 24//24 13//13
f 29//29 13//13 18//18
f 30//30 8//8 18//18
f 30//30 18//18 19//19
f 31//31 20//20 4//4
f 31//31 4//4 14//14
f 31//31 14//14 20//20
f 32//32 19//19 1//1
f 32//32 1//1 20//20
f 32//32 30//30 19//19
f 32//32 20//20 14//14
f 33//33 21//21 14//14
f 33//33 14//14 4//4
f 33//33 4//4 21//21
f 34//34 21//21 10//10
f 34//34 14//14 21//21
f 35//35 24//24 19//19
f 35//35 19//19 13//13
f 35//35 13//13 24//24
f 36//36 19//19 24//24
f 36//36 24//24 25//25
f 37//37 25//25 7//7
f 37//37 7//7 1//1
f 37//37 36//36 25//25
f 37//37 1//1 19//19
f 37//37 19//19 36//36
f 38//38 25//25 24//24
f 38//38 16//16 25//25
f 38//38 24//24 29//29
f 38//38 12//12 16//16
f 39//39 26//26 12//12
f 39//39 12//12 5//5
f 39//39 17//17 26//26
f 40//40 26//26 17//17
f 41//41 28//28 8//8
f 41//41 32//32 14//14
f 41//41 8//8 30//30
f 41//41 30//30 32//32
f 42//42 29//29 18//18
f 42//42 18//18 5//5
f 42//42 5//5 29//29
f 43//43 34//34 10//10
f 43//43 10//10 27//27
f 43//43 27//27 34//34
f 44//44 38//38 29//29
f 44//44 29//29 12//12
f 44//44 12//12 38//38
f 45//45 17//17 39//39
f 45//45 41//41 17//17
f 45//45 28//28 41//41
f 45//45 39//39 5//5
f 45//45 5//5 28//28
f 46//46 40//40 27//27
f 46//46 27//27 10//10
f 46//46 10//10 26//26
f 46//46 26//26 40//40
f 47//47 41//41 14//14
f 47//47 14//14 34//34
f 48//48 40//40 17//17
f 48//48 17//17 41//41
f 48//48 27//27 40//40
f 49//49 47//47 34//34
f 49//49 34//34 27//27
f 49//49 27//27 48//48
f 49//49 48//48 41//41
f 49//49 41//41 47//47
f 72//72 62//62 52//52
f 72//72 63//63 56//56
f 73//73 63//63 53//53
f 73//73 56//56 63//63
f 74//74 69//69 55//55
f 74//74 60//60 69//69
f 79//79 52//52 62//62
f 79//79 78//78 65//65
f 79//79 62//62 78//78
f 80//80 50//50 58//58
f 80//80 58//58 66//66
f 83//83 68//68 59//59
f 85//85 61//61 71//71
f 85//85 54//54 76//76
f 86//86 71//71 67//67
f 86//86 67//67 54//54
f 86//86 85//85 71//71
f 86//86 54//54 85//85
f 87//87 71//71 61//61
f 87//87 73//73 53//53
f 87//87 61//61 73//73
f 88//88 72//72 56//56
f 88//88 56//56 62//62
f 88//88 62//62 72//72
f 89//89 72//72 52//52
f 89//89 63//63 72//72
f 90//90 56//56 73//73
f 90//90 76//76 54//54
f 90//90 54//54 64//64
f 91//91 74//74 63//63
f 91//91 63//63 60//60
f 91//91 60//60 74//74
f 92//92 74//74 55//55
f 92//92 55//55 71//71
f 92//92 71//71 87//87
f 93//93 53//53 63//63
f 93//93 63//63 74//74
f 93//93 74//74 92//92
f 93//93 92//92 87//87
f 93//93 87//87 53//53
f 94//94 75//75 62//62
f 94//94 62//62 56//56
f 94//94 90//90 64//64
f 94//94 56//56 90//90
f 95//95 75//75 58//58
f 95//95 58//58 50//50
f 95//95 50//50 78//78
f 95//95 78//78 62//62
f 95//95 62//62 75//75
f 96//96 64//64 54//54
f 96//96 94//94 64//64
f 96//96 75//75 94//94
f 97//97 73//73 61//61
f 97//97 85//85 76//76
f 97//97 61//61 85//85
f 97//97 90//90 73//73
f 97//97 76//76 90//90
f 98//98 77//77 65//65
f 98//98 65//65 57//57
f 99//99 77//77 51//51
f 99//99 65//65 77//77
f 99//99 79//79 65//65
f 100//100 78//78 57//57
f 100//100 57//57 65//65
f 100//100 65//65 78//78
f 101//101 78//78 66//66
f 101//101 57//57 78//78
f 101//101 98//98 57//57
f 101//101 77//77 98//98
f 102//102 52//52 79//79
f 102//102 83//83 52//52
f 102//102 68//68 83//83
f 102//102 79//79 99//99
f 103//103 78//78 50//50
f 103//103 50//50 80//80
f 103//103 80//80 66//66
f 103//103 66//66 78//78
f 104//104 81//81 66//66
f 104//104 66//66 58//58
f 104//104 58//58 81//81
f 105//105 66//66 81//81
f 105//105 101//101 66//66
f 105//105 77//77 101//101
f 105//105 51//51 77//77
f 106//106 81//81 58//58
f 106//106 54//54 67//67
f 106//106 67//67 81//81
f 106//106 96//96 54//54
f 106//106 58//58 75//75
f 106//106 75//75 96//96
f 107//107 81//81 67//67
f 107//107 67//67 82//82
f 107//107 82//82 51//51
f 107//107 105//105 81//81
f 107//107 51//51 105//105
f 108//108 51//51 82//82
f 108//108 99//99 51//51
f 108//108 102//102 99//99
f 108//108 68//68 102//102
f 108//108 59//59 68//68
f 109//109 69//69 59//59
f 109//109 108//108 82//82
f 109//109 59//59 108//108
f 109//109 55//55 69//69
f 109//109 71//71 55//55
f 109//109 82//82 67//67
f 109//109 67//67 71//71
f 110//110 83//83 70//70
f 110//110 52//52 83//83
f 110//110 89//89 52//52
f 110//110 70//70 89//89
f 111//111 83//83 59//59
f 111//111 70//70 83//83
f 111//111 84//84 70//70
f 111//111 59//59 69//69
f 111//111 69//69 84//84
f 112//112 84//84 69//69
f 112//112 69//69 60//60
f 112//112 60//60 84//84
f 113//113 84//84 60//60
f 113//113 70//70 84//84
f 113//113 89//89 70//70
f 113//113 60//60 63//63
f 113//113 63//63 89//89
# 218 faces, 0 coords texture

# End of File
